<?xml version="1.0" standalone="no"?>
<!DOCTYPE svg PUBLIC "-//W3C//DTD SVG 20010904//EN"
 "http://www.w3.org/TR/2001/REC-SVG-20010904/DTD/svg10.dtd">
<svg version="1.0" xmlns="http://www.w3.org/2000/svg"
 width="260.000000pt" height="260.000000pt" viewBox="0 0 260.000000 260.000000"
 preserveAspectRatio="xMidYMid meet">
<metadata>
Created by potrace 1.14, written by Peter Selinger 2001-2017
</metadata>
<g transform="translate(0.000000,260.000000) scale(0.100000,-0.100000)"
fill="#000000" stroke="none">
<path d="M1351 2316 c-7 -9 -17 -13 -22 -10 -5 3 -9 -3 -10 -13 0 -16 -1 -16
-9 2 -5 11 -9 15 -9 8 -1 -7 -7 -10 -15 -7 -8 3 -25 -6 -39 -20 -26 -26 -44
-35 -32 -16 3 5 0 7 -9 4 -9 -3 -12 -12 -9 -21 4 -11 2 -14 -5 -9 -11 6 -16
-5 -13 -26 0 -4 -7 -4 -16 -1 -13 5 -15 2 -11 -14 8 -32 -13 -23 -70 29 -101
90 -220 119 -337 83 -128 -41 -225 -202 -312 -520 -12 -43 -24 -69 -32 -67 -7
1 -10 -2 -6 -8 6 -10 -41 -35 -58 -31 -5 1 -6 -3 -2 -9 4 -7 12 -7 26 0 10 6
19 8 19 6 0 -3 -14 -13 -31 -22 -23 -11 -29 -12 -23 -2 6 10 5 10 -9 -1 -9 -7
-14 -18 -11 -23 3 -5 -2 -8 -12 -6 -14 2 -19 -3 -18 -20 1 -18 -1 -20 -12 -11
-14 11 -15 10 -18 -11 0 -6 -8 -15 -16 -20 -13 -9 -13 -10 0 -10 13 0 13 -2 0
-9 -8 -6 -19 -7 -25 -3 -5 3 -4 -2 4 -11 12 -15 11 -17 -3 -17 -9 0 -16 -4
-16 -10 0 -5 5 -10 12 -10 6 0 4 -6 -5 -13 -19 -13 -33 -67 -18 -67 5 0 8 -8
6 -17 -2 -10 -4 -22 -4 -26 -1 -5 -7 -5 -13 -1 -10 6 -10 5 -1 -7 9 -11 9 -19
2 -26 -8 -8 -7 -13 2 -18 8 -5 10 -4 5 3 -4 7 -2 12 3 12 14 0 14 -13 -1 -28
-9 -9 -9 -12 1 -12 7 0 9 -5 5 -12 -5 -7 -9 -21 -9 -30 -1 -13 2 -15 11 -7 9
8 11 5 7 -10 -3 -12 -10 -18 -16 -14 -6 3 -7 1 -3 -6 4 -6 11 -9 16 -6 5 3 11
1 15 -5 3 -5 -1 -10 -10 -10 -9 0 -13 -5 -10 -10 4 -6 11 -7 17 -4 6 4 5 -3
-2 -16 -7 -13 -8 -20 -2 -16 6 3 14 -4 18 -16 12 -34 13 -49 5 -43 -4 2 -8 -2
-8 -9 0 -8 6 -12 14 -9 9 4 11 0 6 -13 -4 -12 -3 -15 6 -9 10 6 11 3 1 -15
-11 -20 -10 -22 3 -17 11 4 14 2 10 -9 -3 -7 0 -14 7 -14 6 0 9 -4 5 -9 -3 -5
0 -13 6 -17 8 -4 7 -9 -2 -15 -10 -6 -7 -10 11 -18 14 -5 19 -10 12 -10 -7 -1
-10 -6 -7 -11 4 -6 10 -8 15 -5 10 6 8 -15 -4 -33 -4 -7 -5 -16 -2 -19 3 -4 6
-1 6 5 0 7 5 12 11 12 5 0 7 -4 4 -10 -3 -5 -1 -10 4 -10 6 0 11 -9 11 -21 0
-13 4 -18 12 -13 6 4 8 3 5 -4 -8 -12 2 -44 12 -38 4 3 13 -5 21 -17 12 -20
12 -21 -3 -8 -27 22 -20 6 12 -28 17 -18 33 -41 36 -52 4 -11 11 -16 18 -12 7
4 5 -2 -3 -12 -8 -10 -10 -16 -4 -12 11 6 49 -27 56 -48 2 -5 7 -9 12 -7 5 2
3 -5 -4 -15 -8 -10 -11 -15 -6 -11 10 8 76 -56 76 -74 0 -10 3 -9 10 2 8 13
10 12 10 -3 0 -10 7 -20 15 -23 8 -4 12 -11 8 -18 -4 -6 0 -6 9 2 13 11 16 10
14 -5 0 -12 5 -17 17 -17 15 2 16 -1 5 -14 -10 -12 -10 -14 0 -8 7 4 12 2 12
-4 0 -7 7 -9 16 -6 11 4 15 2 11 -8 -8 -20 4 -28 21 -13 9 6 13 7 9 1 -3 -6 8
-19 25 -29 17 -10 28 -13 24 -7 -5 9 13 10 34 2 3 -1 9 -2 14 -1 5 1 6 -5 3
-14 -8 -19 7 -20 26 0 13 13 16 12 22 -3 6 -16 8 -16 21 2 8 11 14 15 14 10 0
-6 7 -11 15 -11 11 0 12 3 3 14 -9 11 -6 12 16 3 20 -7 25 -7 20 2 -5 7 -2 9
9 5 11 -4 15 -1 12 13 -3 14 2 17 21 15 18 -2 22 1 14 10 -8 9 -4 11 15 7 14
-2 22 -8 20 -13 -3 -4 4 -6 15 -4 11 2 20 -1 20 -6 0 -6 4 -8 9 -5 5 4 11 1
13 -5 2 -7 20 -13 40 -13 28 -1 34 -4 26 -14 -9 -10 -5 -11 17 -2 23 9 31 8
44 -7 15 -15 15 -16 -1 -4 -12 9 -18 9 -24 0 -4 -7 -3 -9 4 -5 6 3 14 2 17 -4
5 -8 11 -7 21 1 11 9 14 9 14 -1 0 -10 4 -9 16 1 13 11 15 10 12 -3 -1 -9 2
-17 7 -17 6 -1 10 3 10 8 0 5 4 13 9 18 6 5 6 2 1 -6 -6 -11 -4 -13 8 -8 11 4
17 1 17 -8 0 -18 26 -20 33 -2 4 9 6 9 6 0 1 -7 8 -13 17 -13 9 0 12 5 8 13
-6 9 -4 9 7 -1 18 -17 173 -17 163 1 -6 9 -4 9 7 -1 19 -17 32 -15 25 6 -5 14
-3 13 9 -3 14 -17 17 -18 25 -5 7 10 10 11 10 3 0 -7 5 -13 11 -13 5 0 7 5 4
10 -3 6 -2 10 4 10 5 0 11 -6 14 -12 2 -7 8 -10 12 -6 4 4 2 16 -6 25 -12 16
-12 17 2 6 9 -7 20 -9 24 -5 5 4 5 -1 2 -10 -4 -13 -1 -16 15 -13 11 3 23 7
27 11 3 4 -2 4 -11 1 -27 -10 -21 6 6 19 18 9 23 8 20 0 -3 -7 4 -12 14 -12
10 0 19 6 19 13 0 7 -4 10 -9 7 -14 -9 -9 3 8 16 12 11 15 11 12 0 -2 -7 3
-15 10 -17 6 -3 12 2 12 11 0 9 5 16 11 16 5 0 7 -5 4 -10 -10 -17 7 -11 22 7
13 16 14 16 9 1 -4 -14 -2 -15 21 -3 15 8 30 12 35 9 4 -3 5 2 2 10 -3 9 -2
16 4 16 6 0 13 -6 15 -12 4 -8 6 -7 6 3 1 21 35 31 51 15 8 -8 9 -6 4 8 -6 16
-4 17 16 11 13 -4 20 -3 17 2 -3 5 3 15 15 22 16 10 19 10 13 -1 -7 -11 -5
-11 6 0 12 11 12 14 -1 22 -8 5 -10 10 -5 10 6 0 16 -5 23 -12 9 -9 12 -9 12
1 0 11 3 11 17 0 15 -13 15 -12 4 10 -10 17 -10 26 -1 35 8 8 10 7 5 -5 -4
-10 0 -19 9 -22 11 -4 13 -1 9 10 -5 12 -2 15 9 10 18 -6 32 18 21 35 -3 6 -1
8 5 5 15 -10 43 3 35 16 -4 6 0 8 10 4 13 -5 17 -1 17 14 0 15 5 19 16 15 8
-3 12 -2 9 4 -3 6 -1 10 4 10 6 0 10 6 9 13 -2 6 5 11 14 11 10 -1 15 2 12 7
-3 5 1 9 8 9 9 0 9 3 -2 10 -12 8 -10 10 10 10 20 0 22 2 10 10 -10 6 -11 10
-2 10 6 0 12 7 12 16 0 10 6 14 14 11 11 -4 13 1 10 19 -3 16 -1 23 6 19 14
-8 13 8 -1 22 -9 9 -7 10 10 6 13 -3 21 -1 21 6 0 7 -4 10 -8 7 -5 -3 -9 2 -9
10 0 9 6 13 15 9 11 -4 12 -2 4 8 -12 14 0 43 15 34 4 -3 9 8 9 24 2 26 0 28
-15 17 -12 -10 -12 -8 2 9 15 17 18 36 16 119 -2 53 -5 92 -7 86 -5 -17 -19
-15 -26 4 -3 8 -2 12 3 9 5 -3 13 0 17 6 4 7 3 9 -2 6 -6 -3 -16 -2 -24 4 -13
7 -13 9 0 9 12 0 12 2 2 9 -7 4 -14 17 -15 28 0 12 -6 19 -13 16 -9 -3 -11 3
-7 19 4 18 3 20 -6 8 -9 -12 -11 -11 -11 8 0 12 -4 22 -8 22 -5 0 -9 6 -9 13
0 6 -4 21 -9 32 -7 18 -6 19 10 6 15 -13 16 -12 11 17 -4 24 0 34 17 46 12 9
19 16 14 16 -5 0 -1 9 9 20 10 11 15 20 10 20 -4 0 -3 6 3 13 6 7 12 34 14 59
2 25 7 44 11 41 4 -2 5 -14 2 -26 -5 -16 -4 -18 3 -8 6 8 10 82 10 165 -1 144
-9 193 -32 179 -5 -4 -7 1 -3 10 3 10 2 17 -4 17 -6 0 -7 5 -4 10 3 6 0 13 -9
16 -8 3 -17 13 -20 21 -5 12 -3 13 7 7 7 -5 6 -2 -3 6 -9 9 -15 21 -12 28 2 7
-2 11 -10 10 -7 -2 -12 3 -11 10 2 6 -2 12 -8 12 -14 0 -39 26 -39 40 0 6 -4
8 -10 5 -5 -3 -10 -1 -10 4 0 6 -9 11 -20 11 -11 0 -19 3 -17 8 1 4 -2 7 -6 7
-5 0 -15 11 -24 25 -10 18 -13 19 -9 5 6 -19 6 -20 -9 -1 -8 10 -11 24 -8 30
4 6 -1 5 -10 -3 -11 -9 -17 -10 -17 -2 0 6 -5 11 -11 11 -6 0 -17 7 -25 15 -8
8 -21 12 -30 8 -9 -3 -14 0 -12 8 2 9 -6 14 -24 13 -15 0 -24 4 -21 10 4 5 -1
7 -10 3 -9 -3 -21 1 -29 11 -12 16 -11 16 7 2 18 -14 19 -14 7 2 -8 10 -20 14
-29 11 -12 -5 -14 -3 -8 7 5 8 4 11 -2 7 -6 -4 -18 0 -29 7 -13 10 -25 11 -43
5 -22 -9 -23 -8 -10 8 8 9 9 14 2 10 -6 -4 -14 -3 -18 3 -4 7 -13 7 -26 0 -16
-9 -21 -7 -29 12 -5 13 -9 17 -9 11 -1 -19 -25 -16 -54 7 -31 25 -37 26 -48 8
-7 -10 -9 -9 -9 4 0 14 -4 16 -25 8 -18 -7 -24 -6 -22 2 3 15 -25 17 -35 3 -5
-6 -11 -5 -17 4 -8 13 -12 13 -27 0 -15 -13 -16 -12 -11 11 4 14 4 19 1 13 -3
-7 -12 -13 -20 -13 -9 0 -12 5 -8 13 6 10 4 10 -7 0 -7 -7 -21 -13 -32 -13
-12 0 -16 -4 -11 -12 6 -10 4 -10 -7 -2 -8 6 -24 10 -36 9 -25 -2 -31 10 -10
18 6 3 2 4 -11 4 -14 -1 -21 -6 -17 -15 2 -7 0 -10 -5 -7 -6 3 -10 1 -10 -6 0
-6 -8 -1 -18 11 -16 20 -19 20 -31 6z m22 -9 c3 -8 -1 -14 -9 -14 -15 0 -18 9
-7 20 9 9 10 9 16 -6z m377 -37 c0 -5 -5 -10 -11 -10 -5 0 -7 5 -4 10 3 6 8
10 11 10 2 0 4 -4 4 -10z m201 -67 c13 -16 12 -17 -3 -4 -10 7 -18 15 -18 17
0 8 8 3 21 -13z m494 -402 c3 -5 2 -12 -3 -15 -5 -3 -9 1 -9 9 0 17 3 19 12 6z
m2 -53 c-3 -8 -6 -5 -6 6 -1 11 2 17 5 13 3 -3 4 -12 1 -19z m-2252 -307 c3
-5 2 -12 -3 -15 -5 -3 -9 1 -9 9 0 17 3 19 12 6z m2152 -316 c0 -8 -4 -12 -9
-9 -5 3 -6 10 -3 15 9 13 12 11 12 -6z m33 -45 c8 -5 11 -10 5 -10 -5 0 -17 5
-25 10 -8 5 -10 10 -5 10 6 0 17 -5 25 -10z m-74 -62 c3 -4 -1 -5 -10 -4 -8 1
-18 5 -22 8 -3 4 1 5 10 4 8 -1 18 -5 22 -8z m80 -17 c0 -17 -3 -28 -6 -26 -5
3 -6 38 -1 53 4 10 7 -3 7 -27z m60 0 c0 -16 -4 -27 -7 -25 -4 2 -6 12 -4 22
2 9 4 20 4 25 1 4 3 7 5 7 2 0 3 -13 2 -29z m-119 -36 c0 -8 -4 -12 -9 -9 -5
3 -6 10 -3 15 9 13 12 11 12 -6z m-132 -5 c3 -6 -1 -7 -9 -4 -18 7 -21 14 -7
14 6 0 13 -4 16 -10z m110 -19 c-9 -8 -36 -10 -30 -2 2 4 11 8 20 8 8 0 13 -3
10 -6z m82 -16 c0 -8 -4 -12 -9 -9 -5 3 -6 10 -3 15 9 13 12 11 12 -6z m60 0
c0 -8 -4 -12 -9 -9 -5 3 -6 10 -3 15 9 13 12 11 12 -6z m-101 -50 c-1 -8 -5
-17 -8 -21 -5 -4 -4 16 1 34 3 9 9 -1 7 -13z m-179 -60 c0 -8 -4 -12 -9 -9 -5
3 -6 10 -3 15 9 13 12 11 12 -6z m179 -11 c1 -9 0 -13 -4 -10 -3 4 -7 14 -8
22 -1 9 0 13 4 10 3 -4 7 -14 8 -22z m-40 -66 c3 -4 -1 -5 -10 -4 -8 1 -18 5
-22 8 -3 4 1 5 10 4 8 -1 18 -5 22 -8z m-262 -16 c3 -5 -1 -9 -9 -9 -8 0 -12
4 -9 9 3 4 7 8 9 8 2 0 6 -4 9 -8z m186 4 c0 -3 -4 -8 -10 -11 -5 -3 -10 -1
-10 4 0 6 5 11 10 11 6 0 10 -2 10 -4z m37 -36 c1 -11 -2 -20 -7 -20 -6 0 -7
17 -1 38 3 8 7 -1 8 -18z m-217 -46 c0 -8 -19 -13 -24 -6 -3 5 1 9 9 9 8 0 15
-2 15 -3z m175 -4 c3 -5 1 -10 -4 -10 -6 0 -11 5 -11 10 0 6 2 10 4 10 3 0 8
-4 11 -10z m-695 -200 c0 -5 -5 -10 -11 -10 -5 0 -7 5 -4 10 3 6 8 10 11 10 2
0 4 -4 4 -10z m320 0 c0 -5 -5 -10 -11 -10 -5 0 -7 5 -4 10 3 6 8 10 11 10 2
0 4 -4 4 -10z"/>
<path d="M1787 2269 c7 -7 15 -10 18 -7 3 3 -2 9 -12 12 -14 6 -15 5 -6 -5z"/>
<path d="M456 605 c4 -8 11 -15 16 -15 6 0 5 6 -2 15 -7 8 -14 15 -16 15 -2 0
-1 -7 2 -15z"/>
<path d="M790 320 c0 -5 5 -10 11 -10 5 0 7 5 4 10 -3 6 -8 10 -11 10 -2 0 -4
-4 -4 -10z"/>
</g>
</svg>
